<?xml version="1.0" standalone="no"?>
<!DOCTYPE svg PUBLIC "-//W3C//DTD SVG 20010904//EN"
 "http://www.w3.org/TR/2001/REC-SVG-20010904/DTD/svg10.dtd">
<svg version="1.0" xmlns="http://www.w3.org/2000/svg"
 width="512.000000pt" height="512.000000pt" viewBox="0 0 512.000000 512.000000"
 preserveAspectRatio="xMidYMid meet">
<metadata>
Created by potrace 1.11, written by Peter Selinger 2001-2013
</metadata>
<g transform="translate(0.000000,512.000000) scale(0.100000,-0.100000)"
fill="#000000" stroke="none">
<path d="M1668 4544 c-86 -20 -147 -53 -209 -114 -99 -96 -140 -220 -115 -345
60 -303 554 -348 730 -67 80 128 76 295 -9 407 -75 98 -254 152 -397 119z"/>
<path d="M3645 3598 c-78 -8 -101 -12 -154 -29 -121 -39 -231 -99 -357 -195
l-84 -64 -1 32 c0 18 -3 52 -5 76 -2 23 -5 61 -7 85 l-4 42 -289 0 -289 0 -16
-85 c-9 -47 -28 -141 -42 -210 -15 -69 -28 -136 -31 -150 -4 -24 -75 -380 -81
-410 -11 -50 -35 -169 -39 -190 -2 -14 -7 -36 -10 -50 -3 -14 -8 -36 -10 -50
-3 -14 -23 -117 -46 -230 -23 -113 -43 -216 -46 -230 -3 -14 -16 -81 -30 -150
-15 -69 -28 -134 -30 -145 -2 -11 -8 -42 -14 -70 -18 -88 -20 -99 -26 -135 -3
-19 -8 -44 -11 -55 -8 -23 -8 -26 -17 -75 -3 -19 -8 -44 -10 -55 -9 -39 -65
-320 -70 -349 -3 -16 -10 -52 -16 -80 -6 -28 -12 -60 -14 -71 -3 -11 -12 -53
-20 -93 -9 -40 -16 -79 -16 -85 0 -9 87 -12 353 -12 l352 0 22 110 c12 61 25
126 28 145 3 19 16 89 30 155 26 135 29 153 45 280 6 50 13 101 15 115 2 14 7
56 11 93 6 65 7 67 23 47 84 -109 164 -168 274 -202 58 -17 85 -20 170 -15
124 7 151 12 247 44 383 127 702 507 830 988 41 152 57 284 58 460 0 153 -7
224 -33 330 -83 333 -324 515 -640 483z m-177 -592 c96 -50 136 -220 109 -471
-17 -157 -83 -351 -158 -462 -112 -166 -289 -246 -417 -187 -51 23 -119 92
-128 130 -3 12 1 59 10 105 22 116 24 128 30 147 3 9 7 33 10 52 3 19 14 76
25 125 11 50 22 106 25 125 29 187 59 261 137 339 99 98 267 144 357 97z"/>
<path d="M1235 3528 c-3 -13 -7 -36 -9 -52 -3 -16 -16 -83 -30 -150 -14 -66
-27 -132 -30 -146 -2 -14 -11 -59 -20 -100 -8 -41 -18 -87 -21 -102 -3 -16 -7
-38 -10 -50 -2 -13 -6 -34 -9 -48 -2 -14 -7 -36 -10 -50 -3 -14 -8 -36 -10
-50 -2 -14 -7 -36 -10 -50 -3 -14 -8 -36 -10 -50 -2 -14 -9 -46 -15 -73 -6
-26 -14 -64 -17 -83 -3 -20 -7 -44 -9 -53 -2 -9 -10 -50 -19 -91 -8 -41 -18
-91 -21 -110 -3 -19 -12 -64 -20 -100 -8 -36 -16 -76 -19 -90 -2 -14 -7 -36
-10 -50 -3 -14 -8 -36 -10 -50 -2 -14 -7 -36 -10 -50 -3 -14 -8 -36 -10 -50
-3 -14 -14 -72 -26 -130 -12 -58 -24 -115 -26 -127 -10 -54 -13 -72 -28 -143
-8 -41 -18 -89 -21 -106 l-5 -32 354 0 354 1 17 86 c9 47 19 95 21 106 5 30
55 277 60 300 3 11 15 76 29 145 13 69 31 157 39 195 8 39 17 82 19 95 4 22
60 301 71 356 3 10 16 80 31 154 15 74 29 144 31 155 2 11 6 31 9 45 2 14 14
70 25 125 11 55 23 116 26 135 3 19 7 37 9 40 2 3 6 26 10 50 6 39 13 77 40
198 l5 22 -355 0 -355 0 -5 -22z"/>
</g>
</svg>
